<?xml version="1.0" standalone="no"?>
<!DOCTYPE svg PUBLIC "-//W3C//DTD SVG 20010904//EN"
 "http://www.w3.org/TR/2001/REC-SVG-20010904/DTD/svg10.dtd">
<svg version="1.0" xmlns="http://www.w3.org/2000/svg"
 width="728.000000pt" height="637.000000pt" viewBox="0 0 728.000000 637.000000"
 preserveAspectRatio="xMidYMid meet">

<g transform="translate(0.000000,637.000000) scale(0.100000,-0.100000)"
fill="#000000" stroke="none">
<path d="M2815 6345 c-88 -43 -145 -128 -145 -216 0 -34 -31 -153 -42 -160 -6
-4 5 -22 24 -40 18 -19 33 -39 33 -46 0 -21 -14 -26 -29 -10 -8 8 -12 17 -9
21 4 3 1 6 -6 6 -8 0 -11 7 -7 15 4 11 -2 15 -22 15 -20 0 -23 3 -12 10 8 5
12 11 9 14 -20 20 -69 -79 -69 -140 l0 -46 -35 4 c-29 3 -43 -2 -73 -27 -20
-17 -44 -34 -52 -37 -20 -7 -98 -261 -111 -363 -6 -44 -28 -153 -50 -242 -21
-89 -39 -172 -39 -185 2 -73 -3 -119 -16 -165 -40 -137 9 -341 148 -618 73
-144 80 -229 64 -720 l-9 -270 38 -79 37 -78 -11 -107 c-6 -58 -13 -117 -16
-131 -3 -14 8 10 25 53 16 43 33 96 36 118 4 22 10 41 14 44 7 4 30 -247 30
-326 0 -53 8 -59 74 -59 66 0 83 -26 102 -148 13 -91 20 -110 63 -179 74 -122
145 -279 171 -381 28 -107 24 -121 -35 -138 -25 -6 -54 -28 -84 -61 -25 -27
-64 -63 -86 -79 -22 -15 -81 -67 -130 -114 -50 -47 -169 -150 -265 -231 -278
-231 -250 -212 -325 -210 l-65 2 -118 -93 c-130 -102 -186 -170 -197 -240 -4
-23 -15 -62 -25 -85 -28 -64 -6 -130 59 -175 16 -11 21 -31 27 -113 7 -95 9
-103 48 -162 23 -35 44 -63 48 -63 3 0 35 -16 70 -36 114 -65 153 -75 274 -72
104 3 109 4 122 28 13 23 12 29 -9 64 -13 21 -35 50 -49 65 -41 42 -66 92 -84
163 -16 68 -12 101 19 134 5 6 32 40 60 76 49 65 50 66 109 72 45 5 78 17 135
50 42 24 134 77 204 117 70 41 152 88 182 104 29 17 118 83 197 147 79 64 193
156 253 203 142 112 180 149 215 210 57 100 63 243 21 475 -28 152 -46 395
-37 493 l8 77 51 0 c67 0 93 -14 132 -72 34 -49 162 -163 196 -173 22 -7 23
-15 8 -69 -6 -22 -17 -89 -24 -150 -8 -61 -18 -135 -24 -164 -11 -59 -18 -142
-26 -337 -4 -87 -12 -146 -24 -180 -10 -27 -24 -86 -31 -130 l-13 -81 -45 -14
c-25 -8 -49 -22 -53 -30 -5 -8 -24 -43 -44 -76 -52 -91 -75 -206 -75 -368 l0
-134 44 -11 c55 -13 218 -15 232 -1 18 18 156 -11 272 -56 l113 -44 189 0
c178 0 191 1 224 23 41 26 44 46 15 94 -29 46 -70 65 -168 74 -188 20 -246 53
-331 193 l-42 70 32 70 c35 76 109 316 110 354 0 21 50 228 191 796 27 109 49
219 49 245 0 47 -7 60 -138 273 -23 37 -96 169 -162 293 -109 204 -190 327
-262 398 -10 10 -18 28 -18 40 0 36 -53 137 -114 215 l-57 74 2 104 c1 57 2
104 3 104 0 0 33 -9 71 -20 38 -11 93 -20 122 -20 32 0 81 -11 131 -29 44 -17
137 -46 206 -66 70 -20 183 -63 254 -96 70 -33 151 -65 181 -70 53 -10 54 -10
88 23 20 18 46 50 59 71 l24 37 103 0 c97 0 106 -2 163 -32 144 -79 225 -150
283 -248 28 -48 43 -61 112 -98 45 -24 90 -55 102 -68 11 -13 25 -24 31 -24
20 0 -49 60 -110 96 -35 20 -61 41 -58 46 3 5 2 8 -3 7 -19 -3 -33 2 -33 12 0
5 5 7 12 3 7 -5 8 -3 4 5 -5 7 -11 10 -14 7 -6 -7 -47 55 -44 67 1 5 -2 6 -8
2 -5 -3 -10 -2 -10 4 0 25 25 22 50 -6 15 -16 47 -44 71 -60 24 -17 55 -43 68
-57 30 -32 57 -36 41 -7 -13 24 -57 69 -143 146 -37 33 -67 65 -67 73 0 13
-50 67 -87 93 -12 8 -23 21 -25 29 -2 7 -20 31 -40 53 -21 22 -38 45 -38 52 0
22 28 25 53 4 32 -24 54 -24 62 1 7 22 25 28 25 8 0 -6 9 -2 20 10 12 12 25
22 31 22 16 0 79 51 79 64 0 6 -7 3 -14 -6 -14 -20 -36 -24 -36 -8 0 14 -72
13 -107 -1 -15 -6 -44 -15 -63 -19 -19 -4 -48 -11 -64 -15 -25 -7 -28 -6 -23
9 6 15 2 17 -21 12 -15 -3 -47 -8 -72 -12 -36 -5 -41 -8 -25 -15 11 -4 40 -6
65 -3 l45 5 -40 -21 c-47 -25 -135 -39 -135 -21 0 6 -18 11 -44 11 -51 0 -55
6 -46 67 7 42 6 45 -24 57 -17 7 -94 40 -171 73 -77 33 -174 72 -215 86 -456
158 -543 193 -627 257 -33 26 -102 64 -152 86 l-91 39 0 102 c0 127 -18 298
-35 338 -7 17 -27 70 -45 120 -18 49 -50 127 -72 174 -21 46 -37 85 -35 87 2
2 80 8 173 13 185 11 292 35 483 108 61 23 115 37 153 39 35 1 86 13 122 28
53 21 87 26 256 36 107 6 205 14 217 17 19 4 22 13 25 66 l3 61 43 9 c46 9 49
14 27 43 -8 10 -15 24 -15 30 0 20 82 21 144 2 52 -15 68 -16 123 -5 35 6 63
14 63 18 0 5 -45 29 -56 29 -3 0 -3 -4 0 -9 8 -12 -74 -37 -82 -25 -9 12 -84
46 -129 59 -13 4 -23 10 -23 15 0 5 -7 16 -16 25 -26 25 -10 42 48 48 54 6
118 31 118 47 0 8 41 30 83 44 28 9 11 24 -20 19 -16 -3 -23 -1 -17 4 6 4 14
18 18 31 6 19 4 22 -19 22 -18 0 -29 -6 -32 -20 -3 -11 -10 -20 -17 -20 -6 0
-6 -4 2 -9 10 -6 3 -10 -22 -15 -24 -5 -36 -13 -37 -24 0 -10 -3 -12 -6 -5 -3
10 -9 10 -25 0 -16 -9 -22 -9 -25 1 -3 6 -9 10 -14 6 -5 -3 -20 7 -34 22 -19
21 -22 29 -13 36 8 5 9 8 2 8 -6 0 -18 -8 -25 -17 -12 -14 -12 -16 0 -8 10 5
12 4 7 -3 -4 -7 -15 -12 -24 -13 -11 0 -12 -2 -4 -6 6 -2 10 -9 6 -14 -3 -5 1
-9 8 -9 9 0 9 -3 -2 -10 -8 -5 -11 -10 -6 -10 4 0 1 -12 -9 -26 -16 -25 -16
-26 4 -19 25 8 29 -16 6 -35 -12 -10 -13 -16 -4 -27 17 -19 8 -24 -27 -14 -19
6 -23 10 -10 10 16 1 18 3 7 14 -10 10 -15 8 -27 -7 -8 -11 -14 -14 -14 -7 0
18 -20 3 -30 -23 l-9 -21 0 23 c-1 12 -5 22 -11 22 -6 0 -10 27 -10 61 0 37 4
58 10 54 6 -3 10 -1 10 4 0 6 -8 11 -18 11 -17 0 -317 -56 -422 -79 -25 -6
-98 -21 -162 -35 -69 -16 -149 -26 -194 -26 -71 0 -88 -4 -196 -51 l-118 -50
-112 11 c-167 18 -203 24 -200 38 33 162 33 376 -2 457 -22 51 -96 118 -165
150 -48 22 -66 25 -175 24 -107 0 -127 -3 -171 -24z m303 -242 c69 -3 109 -9
100 -14 -8 -6 0 -9 25 -9 21 0 45 -7 53 -15 10 -9 11 -15 4 -15 -8 0 -9 -10
-5 -30 5 -22 1 -40 -15 -65 -12 -19 -26 -35 -31 -35 -5 0 -9 -9 -9 -20 0 -13
7 -20 20 -20 11 0 23 -7 26 -15 4 -8 10 -13 14 -10 5 3 11 1 15 -5 3 -5 0 -10
-7 -10 -9 0 -9 -3 2 -10 11 -7 7 -10 -18 -10 -20 0 -31 -4 -27 -10 4 -6 -10
-10 -34 -10 -37 0 -41 2 -41 25 0 14 7 28 15 31 8 4 12 10 9 15 -3 5 -1 9 5 9
6 0 8 7 4 16 -5 13 -8 12 -24 -5 -11 -11 -19 -32 -19 -46 0 -14 -5 -25 -11
-25 -5 0 -8 -4 -5 -9 7 -11 -47 -20 -81 -13 -18 3 -21 7 -11 13 8 6 0 9 -24 9
-20 0 -40 5 -43 10 -3 6 -15 10 -26 10 -10 0 -19 5 -19 10 0 16 -43 12 -69 -6
-22 -16 -24 -15 -44 5 l-21 21 25 0 c23 0 25 3 21 31 -4 28 -3 31 17 24 18 -5
24 -2 28 14 3 12 12 21 21 21 12 0 13 3 5 11 -6 6 -9 17 -7 24 3 7 1 16 -5 20
-6 3 -11 -1 -11 -10 0 -9 -4 -14 -9 -10 -5 3 -8 22 -5 43 4 31 3 33 -5 15 -6
-13 -13 -23 -16 -23 -8 0 -35 27 -35 35 0 19 35 37 70 37 22 -1 40 4 40 10 0
6 9 8 23 3 12 -4 73 -9 135 -12z m209 -75 c-3 -7 -5 -2 -5 12 0 14 2 19 5 13
2 -7 2 -19 0 -25z m-470 -20 c-3 -7 -5 -2 -5 12 0 14 2 19 5 13 2 -7 2 -19 0
-25z m-9 -103 c-3 -3 -9 2 -12 12 -6 14 -5 15 5 6 7 -7 10 -15 7 -18z m-258
-26 c0 -5 -4 -9 -10 -9 -5 0 -10 7 -10 16 0 8 5 12 10 9 6 -3 10 -10 10 -16z
m34 12 c3 -5 0 -11 -8 -14 -8 -3 -17 1 -20 9 -6 15 19 20 28 5z m-60 -62 c-2
-4 5 -9 16 -12 12 -3 24 3 33 16 14 21 14 21 30 -8 9 -17 16 -23 17 -15 0 10
3 11 11 3 14 -14 8 -58 -8 -59 -7 -1 -17 -2 -23 -3 -15 -2 0 -31 16 -31 8 0
14 -7 14 -15 0 -20 -32 -33 -38 -16 -4 11 -6 11 -13 0 -6 -10 -9 -8 -9 9 0 12
-5 21 -12 20 -7 -2 -12 3 -10 10 1 6 -2 12 -8 12 -5 0 -10 9 -10 20 0 11 -4
20 -10 20 -5 0 -10 19 -10 43 0 29 3 38 9 27 6 -8 8 -17 5 -21z m218 -29 c7 0
6 -5 -2 -15 -7 -8 -21 -15 -31 -15 -15 0 -19 7 -19 37 l0 37 20 -22 c12 -12
26 -22 32 -22z m145 4 c-3 -3 -12 -4 -19 -1 -8 3 -5 6 6 6 11 1 17 -2 13 -5z
m-122 -34 c-4 -6 5 -10 19 -10 14 0 26 -4 26 -10 0 -5 5 -10 11 -10 6 0 22
-13 36 -30 21 -25 32 -30 69 -30 24 0 44 5 44 10 0 6 6 10 14 10 8 0 16 4 18
10 2 5 13 11 25 13 12 2 26 6 29 10 4 4 15 7 25 7 17 0 36 -55 31 -95 -4 -27
16 -62 38 -68 17 -4 17 -2 5 32 -7 20 -18 35 -24 33 -8 -1 -7 4 1 18 l13 20 9
-20 c7 -16 19 -20 53 -20 23 0 43 -3 43 -6 0 -11 -28 -33 -34 -27 -3 4 -6 -1
-6 -10 0 -10 -6 -17 -12 -17 -7 0 -26 -11 -42 -25 -16 -13 -33 -22 -37 -19 -5
3 -9 0 -9 -5 0 -6 -16 -11 -36 -11 -21 0 -33 4 -29 10 3 6 -3 10 -13 10 -11 0
-34 3 -52 6 -31 7 -32 6 -21 -15 7 -11 20 -21 30 -21 10 0 23 -6 29 -13 9 -10
3 -14 -31 -16 -23 -1 -44 -6 -45 -12 -3 -6 -10 -5 -20 3 -12 10 -14 10 -8 1 5
-9 -2 -13 -23 -13 -18 0 -31 5 -32 13 -1 6 -2 23 -2 36 -1 13 -11 29 -22 35
-35 19 -47 46 -20 46 27 0 16 35 -15 48 -16 8 -30 18 -30 24 0 5 -7 16 -15 24
-18 19 -20 80 -2 87 18 8 19 8 12 -3z m2012 4 c-3 -3 -12 -4 -19 -1 -8 3 -5 6
6 6 11 1 17 -2 13 -5z m-1884 -26 c3 -10 9 -10 26 0 17 10 26 10 37 1 24 -19
4 -31 -45 -26 -54 7 -48 4 -48 22 0 18 23 20 30 3z m357 -43 c0 -9 -9 -15 -21
-15 -18 0 -19 2 -9 15 7 8 16 15 21 15 5 0 9 -7 9 -15z m-60 -5 c0 -5 -2 -10
-4 -10 -3 0 -8 5 -11 10 -3 6 -1 10 4 10 6 0 11 -4 11 -10z m-463 -22 c-3 -8
-6 -5 -6 6 -1 11 2 17 5 13 3 -3 4 -12 1 -19z m2003 -138 c0 -11 -7 -20 -15
-20 -8 0 -15 2 -15 4 0 2 -3 11 -6 20 -4 12 0 16 15 16 14 0 21 -6 21 -20z
m-1577 -60 c3 -12 0 -20 -7 -20 -18 0 -25 10 -19 26 7 20 20 17 26 -6z m-120
-87 c36 -4 56 -10 54 -17 -5 -16 -102 -20 -118 -4 -20 19 -58 22 -76 6 -14
-11 -15 -11 -11 2 5 17 45 30 73 24 11 -3 46 -8 78 -11z m-113 -73 c0 -5 -7
-7 -15 -4 -8 4 -15 8 -15 10 0 2 7 4 15 4 8 0 15 -4 15 -10z m85 -9 c-11 -5
-27 -6 -35 -4 -12 4 -12 3 -1 -5 7 -5 22 -7 32 -5 10 3 19 0 19 -6 0 -7 -17
-10 -45 -9 -35 2 -45 7 -45 21 0 14 9 17 48 16 34 0 41 -3 27 -8z m2090 -1651
c14 0 28 -27 17 -34 -4 -2 -21 8 -37 22 -17 15 -22 23 -12 19 10 -4 25 -7 32
-7z m55 -34 c0 -3 -4 -8 -10 -11 -5 -3 -10 -1 -10 4 0 6 5 11 10 11 6 0 10 -2
10 -4z m44 -31 c11 -8 18 -17 15 -19 -2 -3 -15 4 -29 14 -14 11 -20 20 -15 19
6 0 19 -6 29 -14z m-544 -55 c0 -11 -4 -20 -9 -20 -11 0 -22 26 -14 34 12 12
23 5 23 -14z m-683 -2876 c12 -3 23 -16 25 -29 5 -23 5 -23 -28 -6 -19 9 -34
22 -34 29 0 13 5 14 37 6z m83 -64 c0 -13 -5 -17 -14 -14 -24 9 -28 34 -6 34
13 0 20 -7 20 -20z"/>
<path d="M3150 5850 c0 -5 5 -10 11 -10 5 0 7 5 4 10 -3 6 -8 10 -11 10 -2 0
-4 -4 -4 -10z"/>
<path d="M5167 6224 c-10 -14 -17 -30 -14 -37 2 -7 12 3 21 21 21 41 18 49 -7
16z"/>
<path d="M5590 6143 c-32 -10 -60 -27 -60 -35 0 -14 42 1 65 23 20 20 20 21
-5 12z"/>
<path d="M5444 6065 c-10 -8 -14 -14 -9 -14 6 0 19 6 29 14 11 8 15 15 10 15
-6 0 -19 -7 -30 -15z"/>
<path d="M5587 5958 c-6 -4 -34 -10 -62 -14 -27 -3 -59 -11 -70 -16 -15 -6
-11 -7 14 -3 19 3 72 8 118 12 53 4 83 10 83 18 0 12 -64 15 -83 3z"/>
<path d="M4766 5854 c-4 -9 -4 -19 -1 -22 2 -3 7 3 11 12 4 9 4 19 1 22 -2 3
-7 -3 -11 -12z"/>
<path d="M4742 5830 c0 -14 2 -19 5 -12 2 6 2 18 0 25 -3 6 -5 1 -5 -13z"/>
<path d="M5345 5790 c11 -5 29 -9 40 -9 l20 0 -20 9 c-11 5 -29 9 -40 9 l-20
0 20 -9z"/>
<path d="M5420 5775 c0 -7 180 -62 225 -68 l40 -6 -50 19 c-27 10 -61 19 -75
19 -14 1 -43 10 -65 21 -36 18 -75 26 -75 15z"/>
<path d="M5300 5655 c8 -10 38 -35 67 -57 55 -40 103 -50 103 -22 0 13 -3 14
-15 4 -12 -10 -23 -7 -60 14 -25 15 -45 30 -45 34 0 4 -15 16 -32 27 -31 18
-32 18 -18 0z"/>
<path d="M5408 3893 c7 -3 16 -2 19 1 4 3 -2 6 -13 5 -11 0 -14 -3 -6 -6z"/>
<path d="M5168 3813 c7 -3 16 -2 19 1 4 3 -2 6 -13 5 -11 0 -14 -3 -6 -6z"/>
<path d="M5473 3553 c9 -2 25 -2 35 0 9 3 1 5 -18 5 -19 0 -27 -2 -17 -5z"/>
<path d="M5602 3250 c2 -6 7 -11 12 -10 5 1 12 -4 16 -10 8 -14 30 -5 30 11 0
6 -4 7 -10 4 -5 -3 -19 -1 -31 6 -16 8 -20 8 -17 -1z"/>
</g>
</svg>
